# xmcd
#
# Track frame offsets:
#	150
#	3833
#	26561
#	53323
#	68192
#	85084
#	104296
#	130479
#	134660
#	158022
#	180874
#	206716
#	219320
#	236411
#	248345
#
# Disc length: 3626 seconds
#
# Revision: 3
# Processed by: cddbd v1.5.2PL0 Copyright (c) Steve Scherf et al.
# Submitted via: EasyCDDAExtractor 15.2.1.1
#
DISCID=b70e280f
DTITLE=Sussie 4 - Red Album
DYEAR=2006
DGENRE=Electronic
TTITLE0=Feedin Back Surreal People
TTITLE1=Mmm... You Go!
TTITLE2=Shakin Eyes
TTITLE3=Can U Feel Me?
TTITLE4=Stars
TTITLE5=Kind Of Wrong
TTITLE6=Play My Game
TTITLE7=U Turn Me On
TTITLE8=Remote Control
TTITLE9=7 A.M.
TTITLE10=Nights On Rush
TTITLE11=Alas De Pastilla
TTITLE12=Tocame Otra Vez
TTITLE13=Gira Tragica Y Amistosa 1
TTITLE14=Gira Tragica Y Amistosa 2
EXTD=
EXTT0=
EXTT1=
EXTT2=
EXTT3=
EXTT4=
EXTT5=
EXTT6=
EXTT7=
EXTT8=
EXTT9=
EXTT10=
EXTT11=
EXTT12=
EXTT13=
EXTT14=
PLAYORDER=
